<svg width="19" height="19" viewBox="0 0 19 19" fill="none" xmlns="http://www.w3.org/2000/svg">
<path fill-rule="evenodd" clip-rule="evenodd" d="M9.05525 17.7218C4.5164 17.7218 0.766907 13.9723 0.766907 9.43349C0.766907 4.89463 4.51003 1.14514 9.04889 1.14514C13.5877 1.14514 17.3436 4.89463 17.3436 9.43349C17.3436 13.9723 13.5941 17.7218 9.05525 17.7218ZM8.03671 13.5967C8.27224 13.5967 8.47595 13.4885 8.62873 13.253L12.9066 6.54975C13.0021 6.4097 13.0848 6.23782 13.0848 6.08504C13.0848 5.74765 12.7856 5.53757 12.4737 5.53757C12.2891 5.53757 12.1045 5.64579 11.9644 5.86223L8.00488 12.1581L5.89778 9.51623C5.73227 9.30616 5.56039 9.22977 5.35668 9.22977C5.04475 9.22977 4.78375 9.47804 4.78375 9.81543C4.78375 9.97458 4.84741 10.1465 4.95563 10.2801L7.41285 13.2594C7.61019 13.5013 7.80117 13.5967 8.03671 13.5967Z" fill="#D1D1D6"/>
</svg>