<svg width="16" height="16" viewBox="0 0 16 16" fill="none" xmlns="http://www.w3.org/2000/svg">
<path fill-rule="evenodd" clip-rule="evenodd" d="M8.20277 15.8718C4.00309 15.8718 0.533783 12.4025 0.533783 8.2028C0.533783 4.00312 3.99719 0.533813 8.19688 0.533813C12.3966 0.533813 15.8718 4.00312 15.8718 8.2028C15.8718 12.4025 12.4024 15.8718 8.20277 15.8718ZM7.26037 12.055C7.4783 12.055 7.66679 11.9548 7.80815 11.7369L11.7663 5.53456C11.8547 5.40497 11.9313 5.24594 11.9313 5.10457C11.9313 4.7924 11.6544 4.59802 11.3658 4.59802C11.195 4.59802 11.0242 4.69815 10.8946 4.89842L7.23092 10.7238L5.28127 8.27937C5.12813 8.08499 4.9691 8.01431 4.78061 8.01431C4.49199 8.01431 4.2505 8.24403 4.2505 8.55621C4.2505 8.70346 4.3094 8.86249 4.40953 8.98619L6.68313 11.7428C6.86573 11.9666 7.04243 12.055 7.26037 12.055Z" fill="#0A7AFF"/>
</svg>
