<svg width="400" height="117" viewBox="0 0 400 117" fill="none" xmlns="http://www.w3.org/2000/svg">
<path d="M107.669 53.48C107.029 52.3067 106.149 51.4133 105.029 50.8C103.909 50.1867 102.602 49.88 101.109 49.88C99.4554 49.88 97.9888 50.2533 96.7088 51C95.4288 51.7467 94.4288 52.8133 93.7088 54.2C92.9888 55.5867 92.6288 57.1867 92.6288 59C92.6288 60.8667 92.9888 62.4933 93.7088 63.88C94.4554 65.2667 95.4821 66.3333 96.7888 67.08C98.0954 67.8267 99.6154 68.2 101.349 68.2C103.482 68.2 105.229 67.64 106.589 66.52C107.949 65.3733 108.842 63.7867 109.269 61.76H99.6688V57.48H114.789V62.36C114.415 64.3067 113.615 66.1067 112.389 67.76C111.162 69.4133 109.575 70.7467 107.629 71.76C105.709 72.7467 103.549 73.24 101.149 73.24C98.4554 73.24 96.0154 72.64 93.8288 71.44C91.6688 70.2133 89.9621 68.52 88.7088 66.36C87.4821 64.2 86.8688 61.7467 86.8688 59C86.8688 56.2533 87.4821 53.8 88.7088 51.64C89.9621 49.4533 91.6688 47.76 93.8288 46.56C96.0154 45.3333 98.4421 44.72 101.109 44.72C104.255 44.72 106.989 45.4933 109.309 47.04C111.629 48.56 113.229 50.7067 114.109 53.48H107.669ZM136.052 67.68H124.932L123.092 73H117.212L127.252 45.04H133.772L143.812 73H137.892L136.052 67.68ZM134.532 63.2L130.492 51.52L126.452 63.2H134.532ZM146.205 59C146.205 56.2533 146.818 53.8 148.045 51.64C149.298 49.4533 150.991 47.76 153.125 46.56C155.285 45.3333 157.698 44.72 160.365 44.72C163.485 44.72 166.218 45.52 168.565 47.12C170.911 48.72 172.551 50.9333 173.485 53.76H167.045C166.405 52.4267 165.498 51.4267 164.325 50.76C163.178 50.0933 161.845 49.76 160.325 49.76C158.698 49.76 157.245 50.1467 155.965 50.92C154.711 51.6667 153.725 52.7333 153.005 54.12C152.311 55.5067 151.965 57.1333 151.965 59C151.965 60.84 152.311 62.4667 153.005 63.88C153.725 65.2667 154.711 66.3467 155.965 67.12C157.245 67.8667 158.698 68.24 160.325 68.24C161.845 68.24 163.178 67.9067 164.325 67.24C165.498 66.5467 166.405 65.5333 167.045 64.2H173.485C172.551 67.0533 170.911 69.28 168.565 70.88C166.245 72.4533 163.511 73.24 160.365 73.24C157.698 73.24 155.285 72.64 153.125 71.44C150.991 70.2133 149.298 68.52 148.045 66.36C146.818 64.2 146.205 61.7467 146.205 59ZM201.428 45.08V73H195.828V61.12H183.868V73H178.268V45.08H183.868V56.56H195.828V45.08H201.428ZM212.54 45.08V73H206.94V45.08H212.54ZM233.204 45.08V73H227.604V45.08H233.204ZM244.337 68.56H253.537V73H238.737V45.08H244.337V68.56ZM262.696 68.56H271.896V73H257.096V45.08H262.696V68.56ZM294.895 53.48C294.255 52.3067 293.375 51.4133 292.255 50.8C291.135 50.1867 289.829 49.88 288.335 49.88C286.682 49.88 285.215 50.2533 283.935 51C282.655 51.7467 281.655 52.8133 280.935 54.2C280.215 55.5867 279.855 57.1867 279.855 59C279.855 60.8667 280.215 62.4933 280.935 63.88C281.682 65.2667 282.709 66.3333 284.015 67.08C285.322 67.8267 286.842 68.2 288.575 68.2C290.709 68.2 292.455 67.64 293.815 66.52C295.175 65.3733 296.069 63.7867 296.495 61.76H286.895V57.48H302.015V62.36C301.642 64.3067 300.842 66.1067 299.615 67.76C298.389 69.4133 296.802 70.7467 294.855 71.76C292.935 72.7467 290.775 73.24 288.375 73.24C285.682 73.24 283.242 72.64 281.055 71.44C278.895 70.2133 277.189 68.52 275.935 66.36C274.709 64.2 274.095 61.7467 274.095 59C274.095 56.2533 274.709 53.8 275.935 51.64C277.189 49.4533 278.895 47.76 281.055 46.56C283.242 45.3333 285.669 44.72 288.335 44.72C291.482 44.72 294.215 45.4933 296.535 47.04C298.855 48.56 300.455 50.7067 301.335 53.48H294.895ZM311.758 45.08V73H306.158V45.08H311.758Z" fill="#101012"/>
</svg>
